<svg width="214" height="203" viewBox="0 0 214 203" fill="none" xmlns="http://www.w3.org/2000/svg">
<path d="M66 131C66 131 68.2454 134.652 70.5 136C73.0635 137.533 78 137.5 78 137.5" stroke="#1A1C1C" stroke-width="3"/>
<path d="M195.733 87.2435C192.723 81.8783 179.102 79.7123 174.67 79.1537C173.993 79.0684 173.47 79.6838 173.636 80.346L180.572 108.083C180.754 108.81 181.634 109.082 182.183 108.571C186.207 104.821 198.704 92.5385 195.733 87.2435Z" fill="black" stroke="#1A1C1C" stroke-width="2"/>
<path d="M16.9065 117.089C24.0039 173.482 111.498 205.984 153.407 167.589C171.637 150.887 180.408 134.809 179.907 110.089C179.174 73.9647 154.66 53.0879 120.407 41.5892C89.0917 31.077 60.0132 31.484 36.9065 55.0892C18.7997 73.5867 13.6743 91.4073 16.9065 117.089Z" fill="white" stroke="#1A1C1C" stroke-width="3"/>
<path d="M92.0746 25.6553C87.0492 23.0474 80.219 30.5115 77.5255 33.826C77.0181 34.4504 77.4586 35.3466 78.263 35.3637L96.593 35.7538C97.2393 35.7675 97.7207 35.1776 97.5429 34.556C96.876 32.2253 95.1334 27.2427 92.0746 25.6553Z" fill="#111111" stroke="#1A1C1C" stroke-width="2"/>
<path d="M105.759 43.6766C105.759 43.6766 104.593 52.441 108.456 53.9225C110.158 54.5753 112.469 53.6734 114.117 52.7956C114.903 52.3766 116.017 53.0455 116.041 53.9365C116.083 55.5133 116.412 57.415 117.649 58.1642C118.997 58.981 121.026 58.1865 122.494 57.3743C123.243 56.9596 124.314 57.5187 124.405 58.3703C124.549 59.7339 124.92 61.4011 125.845 62.3267C128.524 65.0095 135.473 61.0857 135.473 61.0857" stroke="#1A1C1C" stroke-width="2"/>
<ellipse cx="83" cy="62.5" rx="10" ry="9.5" fill="#0A0A0A"/>
<path d="M96.4569 58.8506L74.3523 48.5605C72.2969 47.6037 69.8593 47.872 68.2575 49.4764C66.8384 50.8976 65.2497 52.7438 64.5 54.5C63.0354 57.9309 62.6183 60.3752 63.5 64C64.7418 69.1051 68.1243 71.0919 72.5 74C77.9059 77.5927 82.2751 80.3387 88.5 78.5C92.7703 77.2387 95.1171 75.2614 97.5 71.5C98.7159 69.5808 99.3425 66.7155 99.6644 64.3904C99.9901 62.0371 98.6107 59.8532 96.4569 58.8506Z" stroke="#1A1C1C" stroke-width="2"/>
<path d="M47.5 54C47.5 54 52.6549 57.4141 55 60.5C57.1134 63.281 59 68.5 59 68.5" stroke="#1A1C1C" stroke-width="2"/>
<path d="M35.8369 72.7635C35.8369 72.7635 42.0141 72.4962 45.7251 73.6147C49.0694 74.6227 53.6631 77.7365 53.6631 77.7365" stroke="#1A1C1C" stroke-width="2"/>
<path d="M44 64C44 64 48.767 65.078 51.4326 66.7459C53.835 68.249 56.8669 71.693 56.8669 71.693" stroke="#1A1C1C" stroke-width="2"/>
<path d="M153.71 106.852C153.71 106.852 147.613 105.827 143.792 106.48C140.349 107.069 135.408 109.594 135.408 109.594" stroke="#1A1C1C" stroke-width="2"/>
<path d="M149.419 128.525C149.419 128.525 145.089 124.111 141.614 122.395C138.482 120.848 133 119.986 133 119.986" stroke="#1A1C1C" stroke-width="2"/>
<path d="M149.439 116.548C149.439 116.548 145.22 114.081 142.134 113.479C139.352 112.937 134.786 113.383 134.786 113.383" stroke="#1A1C1C" stroke-width="2"/>
<path d="M91.2946 93L99.5 113C99.5 113 96.4351 120.141 92.7946 123C88.7287 126.193 84.75 126.973 79.7946 125.5C74.2298 123.845 71.8685 119.922 69.7946 114.5C67.1986 107.713 71.7946 96 71.7946 96L91.2946 93Z" fill="#E66767" stroke="#181819" stroke-width="2"/>
<path d="M54.8931 62C54.8931 62 37.5 73.5 53.5 90.5C63.47 101.093 91.5774 91.9359 91.5774 91.9359C91.5774 91.9359 99.4141 123.398 116.5 124.5C148.159 126.542 142.835 106.405 142.835 106.405" stroke="#0C0C0C" stroke-width="2"/>
<circle cx="81.5" cy="58.5" r="2.5" fill="white"/>
<circle cx="79.5" cy="63.5" r="1.5" fill="white"/>
<circle cx="89" cy="65" r="1" fill="white"/>
<ellipse cx="10" cy="9.5" rx="10" ry="9.5" transform="matrix(-0.645122 -0.764079 -0.764079 0.645122 141.351 85.501)" fill="#0A0A0A"/>
<path d="M121.748 71.3524L143.871 81.6037C145.928 82.5569 147.296 84.5925 147.103 86.8514C146.933 88.8526 146.547 91.2575 145.689 92.9633C144.012 96.2957 142.414 98.1913 139.075 99.856C134.373 102.201 130.673 100.898 125.628 99.4305C119.396 97.6177 114.479 96.0508 111.868 90.1083C110.077 86.0318 110.074 82.963 111.41 78.7157C112.092 76.5486 113.877 74.2213 115.446 72.4754C117.034 70.7084 119.593 70.3535 121.748 71.3524Z" stroke="#1A1C1C" stroke-width="2"/>
<circle cx="2.5" cy="2.5" r="2.5" transform="matrix(-0.645122 -0.764079 -0.764079 0.645122 135.188 82.8518)" fill="white"/>
<circle cx="1.5" cy="1.5" r="1.5" transform="matrix(-0.645122 -0.764079 -0.764079 0.645122 131.249 87.4867)" fill="white"/>
<circle cx="1" cy="1" r="1" transform="matrix(-0.645122 -0.764079 -0.764079 0.645122 123.27 81.1361)" fill="white"/>
<path d="M79.5 120.5C79.5 120.5 79.5939 113.765 81 109.5C82.3574 105.382 85.5 99.5 85.5 99.5" stroke="#1A1C1C" stroke-width="2"/>
<path d="M98 71L111.5 77.5" stroke="#1A1C1C" stroke-width="2"/>
</svg>
